<svg
  xmlns="http://www.w3.org/2000/svg"
  role="img"
  width="480"
  height="202"
  aria-labelledby="loading-aria"
  viewBox="0 0 480 202"
  preserveAspectRatio="none"
>
  <title id="loading-aria">Loading...</title>
  <rect
    x="0"
    y="0"
    width="100%"
    height="100%"
    clip-path="url(#clip-path)"
    style='fill: url("#fill");'
  ></rect>
  <defs>
    <clipPath id="clip-path">
        <rect x="2" y="24" rx="5" ry="5" width="46" height="121" /> 
        <rect x="88" y="62" rx="5" ry="5" width="46" height="83" /> 
        <rect x="174" y="31" rx="5" ry="5" width="46" height="114" /> 
        <rect x="260" y="24" rx="5" ry="5" width="46" height="121" /> 
        <rect x="346" y="1" rx="5" ry="5" width="46" height="144" /> 
        <rect x="432" y="76" rx="5" ry="5" width="46" height="69" /> 
        <rect x="0" y="165" rx="5" ry="5" width="132" height="9" /> 
        <rect x="0" y="192" rx="5" ry="5" width="60" height="9" /> 
        <rect x="174" y="165" rx="5" ry="5" width="60" height="9" /> 
        <rect x="174" y="192" rx="5" ry="5" width="132" height="9" /> 
        <rect x="348" y="165" rx="5" ry="5" width="132" height="9" /> 
        <rect x="348" y="192" rx="5" ry="5" width="60" height="9" />
    </clipPath>
    <linearGradient id="fill">
      <stop
        offset="0.599964"
        stop-color="#628b80"
        stop-opacity="1"
      >
        <animate
          attributeName="offset"
          values="-2; -2; 1"
          keyTimes="0; 0.25; 1"
          dur="2s"
          repeatCount="indefinite"
        ></animate>
      </stop>
      <stop
        offset="1.59996"
        stop-color="#3d7262"
        stop-opacity="1"
      >
        <animate
          attributeName="offset"
          values="-1; -1; 2"
          keyTimes="0; 0.25; 1"
          dur="2s"
          repeatCount="indefinite"
        ></animate>
      </stop>
      <stop
        offset="2.59996"
        stop-color="#628b80"
        stop-opacity="1"
      >
        <animate
          attributeName="offset"
          values="0; 0; 3"
          keyTimes="0; 0.25; 1"
          dur="2s"
          repeatCount="indefinite"
        ></animate>
      </stop>
    </linearGradient>
  </defs>
</svg>